<!-- icon666.com - MILLIONS vector ICONS FREE --><svg version="1.1" id="Capa_1" xmlns="http://www.w3.org/2000/svg" xmlns:xlink="http://www.w3.org/1999/xlink" x="0px" y="0px" viewBox="0 0 333.656 333.656" style="enable-background:new 0 0 333.656 333.656;" xml:space="preserve"><g><g><path d="M48.028,35.264v2.263v286.368v9.762h232.2h5.4V42.056h-37.8V0L48.028,35.264z M64.228,58.256h205.2v259.2h-205.2V58.256z M232.303,40.706H104.728c0,0,124.2-22.615,127.575-22.615V40.706z" fill="#000000" style="fill: rgb(255, 255, 255);"></path><path d="M144.584,73.986c-1.268-2.992-4.206-4.931-7.457-4.931h-54c-4.472,0-8.1,3.623-8.1,8.101v56.024 c0,3.304,2.004,6.275,5.065,7.513c0.989,0.393,2.009,0.588,3.035,0.588c2.154,0,4.276-0.865,5.832-2.479l54-56.025 C145.212,80.438,145.855,76.977,144.584,73.986z M91.228,113.105V85.256h26.845L91.228,113.105z" fill="#000000" style="fill: rgb(255, 255, 255);"></path><path d="M253.629,237.073c-3.027-1.255-6.508-0.569-8.828,1.751l-54,54c-2.32,2.32-3.017,5.801-1.762,8.833 c1.266,3.026,4.219,4.999,7.488,4.999h54c4.473,0,8.101-3.623,8.101-8.101v-54C258.628,241.281,256.655,238.328,253.629,237.073z M242.428,290.456h-26.346l26.346-26.346V290.456z" fill="#000000" style="fill: rgb(255, 255, 255);"></path><path d="M240.402,166.86c0-4.475-3.628-8.1-8.1-8.1h-125.55c-4.472,0-8.1,3.625-8.1,8.1c0,4.474,3.628,8.103,8.1,8.103h125.55 C236.774,174.963,240.402,171.334,240.402,166.86z" fill="#000000" style="fill: rgb(255, 255, 255);"></path></g></g></svg>