<!-- icon666.com - MILLIONS vector ICONS FREE --><svg version="1.1" xmlns="http://www.w3.org/2000/svg" viewBox="0 0 512 512" xmlns:xlink="http://www.w3.org/1999/xlink" enable-background="new 0 0 512 512"><g><g><path d="m493.4,198.4l-91-74.5v-14.4c0-11.3-9.1-20.4-20.4-20.4h-22l-89.7-73.5c-7.5-6.1-18.3-6.2-25.8-0.1l-90.8,73.6h-23.4c-11.3,0-20.4,9.1-20.4,20.4v15.1l-91.3,73.7c-4.8,3.9-7.6,9.7-7.6,15.9v266.4c0,11.3 9.1,20.4 20.4,20.4h449.1c11.3,0 20.4-9.1 20.4-20.4v-266.4c0-6.1-2.8-11.9-7.5-15.8zm-46.8,14.5l-44.2,29.3v-65.4l44.2,36.1zm-85.1-83v139.3l-105.3,69.7-105.6-70.1v-138.9h210.9zm-104.3-72.1l38.3,31.3h-77l38.7-31.3zm-147.4,183.9l-44-29.2 44-35.6v64.8zm-58,218.5v-207.9l193.2,128.1c3.4,2.3 7.4,3.4 11.3,3.4 3.9,0 7.9-1.1 11.3-3.4l192.4-127.5v207.2h-408.2z"></path></g></g></svg>