<!-- icon666.com - MILLIONS vector ICONS FREE --><svg version="1.1" id="Capa_1" xmlns="http://www.w3.org/2000/svg" xmlns:xlink="http://www.w3.org/1999/xlink" x="0px" y="0px" viewBox="0 0 490.8 490.8" style="enable-background:new 0 0 490.8 490.8;" xml:space="preserve"><g><g><path d="M475.2,145.146c-40.5-9.4-83.6-12.9-136.9-9.6c0.2-2.5,0.4-4.8,0.4-7.1c0-70.9-57.3-128.2-127.1-128.2 c-70.9,0-128.2,57.3-128.2,128.2c0,7.5,1.4,16.1,3.8,25.5c-21.9-1.1-42.4-4.1-62.2-8.8c-6.3-1-12.5,0-17.7,4.2 c-4.2,3.1-7.3,9.4-7.3,15.6v294.9c0,9.4,6.3,17.7,15.6,19.8c75.8,21.7,188.6,5.2,232.4,0c75-8.3,146.9-16.7,217.8,0 c12.1,3.1,25-6,25-19.8v-294.9C490.8,155.546,484.6,147.146,475.2,145.146z M211.5,40.946c47.9,0,86.5,39.6,86.5,87.5 c0,34.4-47.9,119.8-86.5,180.3c-38.6-60.4-86.5-146.9-86.5-180.3C125,80.546,163.6,40.946,211.5,40.946z M450.2,434.846 c-69.8-12.5-138.6-4.2-206.3,4.2c-69.8,8.3-136.5,16.7-202.2,4.2v-252.3c19.1,2.9,39.1,4.8,60.7,5.1 c29.6,67.8,84.2,148.5,92.5,160.5c8.7,13.1,25.3,11.5,33.3,0c9.2-13.1,73-108.8,99.3-179.5c48.4-3.8,87-2.7,122.7,4.4V434.846z" fill="#000000" style="fill: rgb(255, 255, 255);"></path><circle cx="211.5" cy="115.446" r="20.5" fill="#000000" style="fill: rgb(255, 255, 255);"></circle></g></g></svg>