<!-- icon666.com - MILLIONS vector ICONS FREE --><svg version="1.1" id="Capa_1" xmlns="http://www.w3.org/2000/svg" xmlns:xlink="http://www.w3.org/1999/xlink" x="0px" y="0px" viewBox="0 0 511.996 511.996" style="enable-background:new 0 0 511.996 511.996;" xml:space="preserve"><g><g><g><path d="M369.58,245.231c-6.399-6.416-16.764-6.416-23.163-0.027c-6.416,6.39-6.425,16.764-0.036,23.172 c15.699,15.753,24.352,36.653,24.352,58.866c0,22.196-8.644,43.096-24.352,58.839c-6.399,6.408-6.381,16.773,0.036,23.172 c3.195,3.186,7.384,4.784,11.564,4.784c4.198,0,8.404-1.606,11.599-4.828c21.876-21.938,33.919-51.047,33.919-81.976 C403.499,296.287,391.456,267.16,369.58,245.231z" fill="#000000" style="fill: rgb(255, 255, 255);"></path><path d="M392.016,188.947c-6.416,6.39-6.425,16.764-0.036,23.172c30.982,31.07,48.048,72.32,48.048,116.152 c0,43.814-17.066,85.064-48.048,116.135c-6.399,6.399-6.381,16.782,0.036,23.163c3.195,3.186,7.384,4.784,11.564,4.784 c4.207,0,8.413-1.606,11.599-4.819c37.15-37.256,57.615-86.724,57.615-139.271c0-52.574-20.456-102.033-57.615-139.289 C408.78,182.566,398.414,182.558,392.016,188.947z" fill="#000000" style="fill: rgb(255, 255, 255);"></path><path d="M314.823,231.085c22.444-9.301,63.605-31.177,63.605-66.631c0-26.198-17.829-39.537-38.472-54.988 c-23.837-17.829-56.479-42.261-86.848-100.639c-4.18-8.032-14.066-11.147-22.098-6.976c-8.032,4.18-11.156,14.066-6.976,22.098 c33.822,65.016,71.397,93.14,96.273,111.75c19.152,14.333,25.337,19.72,25.337,28.754c0,15.779-32.339,33.413-54.18,40.362 c-7.801,2.458-12.593,10.295-11.235,18.353l4.233,24.973l-99.778,43.371c-8.298,3.612-12.105,13.259-8.493,21.566 c2.68,6.168,8.706,9.851,15.034,9.851c2.183,0,4.402-0.444,6.532-1.358l111.537-48.5c6.913-3,10.889-10.33,9.62-17.749 L314.823,231.085z" fill="#000000" style="fill: rgb(255, 255, 255);"></path><path d="M309.241,357.647l-84.017-36.156c-8.316-3.585-17.945,0.266-21.521,8.582c-3.576,8.316,0.257,17.953,8.573,21.53 l67.048,28.843l-13.756,23.731c-2.21,3.816-2.796,8.342-1.615,12.593c4.224,15.247,7.339,35.96-1.802,47.986 c-9.105,11.963-29.65,14.475-45.279,14.475c-93.664,0-178.967-100.178-178.967-210.189c0-123.651,64.297-215.132,163.792-233.059 c8.91-1.606,14.83-10.117,13.223-19.027S204.803,2.099,195.893,3.732C81.8,24.286,5.14,130.907,5.14,269.042 c0,129.429,98.935,242.954,211.733,242.954c33.52,0,57.526-9.221,71.353-27.423c12.904-16.951,15.93-40.389,9.052-69.764 l19.657-33.901c2.343-4.047,2.849-8.91,1.376-13.365C316.847,363.096,313.536,359.493,309.241,357.647z" fill="#000000" style="fill: rgb(255, 255, 255);"></path><path d="M434.623,161.338c5.76,0,11.528-2.307,15.611-6.479c4.162-4.171,6.567-9.851,6.567-15.708s-2.396-11.537-6.567-15.708 c-8.245-8.253-23.065-8.253-31.328,0c-4.162,4.171-6.47,9.851-6.47,15.708s2.299,11.537,6.47,15.708 C423.086,159.031,428.766,161.338,434.623,161.338z" fill="#000000" style="fill: rgb(255, 255, 255);"></path><path d="M498.326,22.44c-7.934-4.331-17.9-1.42-22.24,6.523l-30.627,56.088c-4.34,7.943-1.429,17.891,6.523,22.231 c2.485,1.367,5.183,2.015,7.845,2.015c5.795,0,11.422-3.088,14.386-8.537l30.627-56.088 C509.188,36.728,506.269,26.78,498.326,22.44z" fill="#000000" style="fill: rgb(255, 255, 255);"></path></g></g></g></svg>