<!-- icon666.com - MILLIONS vector ICONS FREE --><svg id="icons" enable-background="new 0 0 64 64" viewBox="0 0 64 64" xmlns="http://www.w3.org/2000/svg"><path d="m54.006 17.003v-.004h2c.553 0 1-.447 1-1v-8.002c0-.553-.447-1-1-1h-2c0-.553-.447-1-1-1h-7.992c-.006 0-.01.003-.016.003-2.15.006-4.106 1.166-5.168 2.999h-1.825c-.001 0-.001 0-.002 0-1.652.003-2.996 1.347-2.996 3s1.344 2.997 2.996 3h.002 1.821c.916 1.585 2.499 2.671 4.304 2.938l2.885 21.172c-.058 2.155-1.819 3.894-3.989 3.894h-10.018v-13.003c0-.001 0-.001 0-.002 0 0 0 0 0-.001 0-.003-.002-.006-.002-.01v-3.976c0-.004.002-.006.002-.01v-4.997-.004-4.992-.005-4.997c0-.553-.447-1-1-1h-8.993c-.005 0-.01-.003-.015-.003s-.01.003-.015.003h-5.971c-.005 0-.01-.003-.015-.003s-.01.003-.015.003h-8.976c-.553 0-1 .447-1 1v4.997.005 4.992.005 4.997 3.101c-2.28.464-4.002 2.484-4.004 4.899-1.653.001-2.998 1.347-2.998 3 0 1.654 1.346 3 3 3h.002v4.001c0 .553.447 1 1 1v4c0 .553.447 1 1 1h.061c.5 4.493 4.316 8 8.941 8 4.624 0 8.439-3.507 8.939-8h.061c.553 0 1-.447 1-1v-.538c1.063.953 2.462 1.538 3.998 1.538l14.992-.005c.01 0 .017.005.025.005.034 0 .066-.005.1-.005l1.943-.001c.496 4.496 4.314 8.006 8.941 8.006 4.628 0 8.447-3.513 8.941-8.012h.043c.553 0 1-.447 1-1 0-5.755-4.45-10.482-10.089-10.942l-2.732-20.046h1.833c.554 0 1.001-.447 1.001-1zm1-8.006v6.002h-1v-6.002zm-9.002 2.002c.552 0 1 .448 1 1s-.448 1-1 1h-5.184c.112-.314.185-.647.185-1s-.072-.686-.185-1zm-8.997 1c0-.552.448-1 1-1 .551 0 .998.448.998 1s-.447 1-.998 1c-.552 0-1-.448-1-1zm5.355 3h3.642c1.654 0 3-1.346 3-3s-1.346-3-3-3h-3.637c.717-.632 1.652-1 2.646-1 .004 0 .006-.002.01-.002h6.982v8.006h-6.992c-.995 0-1.933-.369-2.651-1.004zm-33.354 7.006h7.137c.449 1.717 2 2.992 3.855 2.992s3.406-1.275 3.855-2.992h7.152v2.997h-22v-2.997zm12.71 0c-.349.591-.984.992-1.718.992s-1.369-.401-1.718-.992zm0-4.997c-.349.591-.985.992-1.718.992s-1.369-.401-1.718-.992zm-5.573 0c.449 1.717 2 2.992 3.855 2.992s3.406-1.275 3.855-2.992h7.152v2.992h-7.993c-.005 0-.01-.003-.015-.003s-.009.003-.014.003h-2.985-2.985c-.005 0-.01-.003-.015-.003s-.01.003-.015.003h-7.977v-2.992zm-7.137 9.994h21.998v1.995h-21.998zm12.712-14.996c-.347.593-.984.997-1.72.997s-1.373-.404-1.72-.997zm-5.577 0c.448 1.719 2 2.997 3.857 2.997s3.409-1.278 3.857-2.997h7.15v2.997h-7.993c-.004 0-.009-.003-.014-.003s-.01.003-.015.003h-2.985-2.985c-.005 0-.01-.003-.015-.003s-.01.003-.015.003h-7.977v-2.997zm-8.137 18.996c.009 0 .016-.005.024-.005h22.978v12.006h-7.992c-.004 0-.006-.002-.01-.002s-.006.002-.01.002h-17.988v-8.997c0-.005-.003-.009-.003-.013.008-1.65 1.35-2.991 3.001-2.991zm-5 5h.002v2h-.002c-.552 0-1-.448-1-1s.448-1 1-1zm19.004 9.001v3h-16.002v-3zm-5.187 5c-.413 1.161-1.513 2-2.813 2-1.302 0-2.401-.839-2.815-2zm-2.813 6c-3.519 0-6.432-2.614-6.92-6h2.021c.464 2.279 2.484 4 4.898 4s4.433-1.721 4.896-4h2.021c-.486 3.386-3.398 6-6.916 6zm40 0c-3.521 0-6.436-2.617-6.921-6.007h2.021c.462 2.282 2.482 4.007 4.899 4.007s4.438-1.726 4.898-4.011h2.021c-.482 3.392-3.397 6.011-6.918 6.011zm-2.819-6.008 5.635-.002c-.41 1.167-1.512 2.01-2.816 2.01s-2.406-.843-2.819-2.008zm10.745-2.004-12.596.005c2.558-1.802 4.318-4.66 4.632-7.939 4.174.449 7.499 3.765 7.964 7.934zm-9.924-9.017c0 .01-.006.019-.006.029 0 .027.014.051.016.077-.042 4.894-4.006 8.863-8.896 8.918l-15.117.005c-1.859 0-3.412-1.279-3.859-3h18.877c3.309 0 6-2.691 6-6 0-.044-.02-.082-.025-.124 0-.004.002-.007.001-.011l-2.844-20.865h2.997z"></path></svg>