<!-- icon666.com - MILLIONS vector ICONS FREE --><svg id="Capa_1" enable-background="new 0 0 512 512" viewBox="0 0 512 512" xmlns="http://www.w3.org/2000/svg"><path d="m512 406c0-41.854-24.619-78.062-60.134-94.917-1.759-73.336-22.498-124.096-24.055-130.083h24.189v-90h-60v-60h-60v30h30v32.58c-12.764 4.527-22.893 14.656-27.42 27.42h-47.58v30h45v45c0 70.002-54.351 127.724-123.653 134.358-2.967-13.924-9.813-26.421-19.344-36.323 12.605-7.983 20.997-22.043 20.997-38.035 0-19.555-12.541-36.228-30-42.42v-122.58h-150v120h-30v15c0 34.094 22.876 62.927 54.078 72.008-32.814 24.651-54.078 63.884-54.078 107.992v15h31.509c6.968 34.192 37.272 60 73.491 60s66.522-25.808 73.491-60h155.018c6.968 34.192 37.272 60 73.491 60s66.522-25.808 73.491-60h31.509zm-452-285h30v30h30v-30h30v90h-90zm15 150c-19.556 0-36.239-12.539-42.43-30h132.43c8.271 0 15 6.729 15 15s-6.729 15-15 15zm30 180c-19.555 0-36.228-12.543-42.42-30.001h84.839c-6.191 17.458-22.864 30.001-42.419 30.001zm75-60h-148.932c7.3-50.817 51.126-90 103.932-90 24.813 0 45 20.187 45 45zm300.493 0h-146.986c6.969-34.191 37.274-60 73.493-60s66.524 25.809 73.493 60zm-58.493-240h-45c-8.271 0-15-6.729-15-15s6.729-15 15-15h45zm-212 240v-30.675c83.835-7.452 152-77.719 152-164.325v-17.58c4.695 1.665 9.742 2.58 15 2.58h19.188c3.056 11.134 22.064 54.982 25.322 121.007-4.745-.659-9.587-1.007-14.51-1.007-52.804 0-96.623 39.184-103.924 90zm197 60c-19.555 0-36.228-12.543-42.42-30.001h84.839c-6.191 17.458-22.864 30.001-42.419 30.001z"></path></svg>