<!-- icon666.com - MILLIONS vector ICONS FREE --><svg enable-background="new 0 0 32 32" viewBox="0 0 32 32" xmlns="http://www.w3.org/2000/svg"><g id="apps"><path d="m15 15v1h2c1.103 0 2 .897 2 2v1c0 1.103-.897 2-2 2 0 .553-.447 1-1 1s-1-.447-1-1h-1c-.553 0-1-.447-1-1s.447-1 1-1h3v-1h-2c-1.103 0-2-.897-2-2v-1c0-1.103.897-2 2-2 0-.553.447-1 1-1s1 .447 1 1h1c.553 0 1 .447 1 1s-.447 1-1 1zm10-10v22c0 1.654-1.346 3-3 3h-12c-1.654 0-3-1.346-3-3v-22c0-1.654 1.346-3 3-3h12c1.654 0 3 1.346 3 3zm-12.586-1 1 1h5.172l1-1zm10.586 1c0-.43-.274-.789-.655-.931l-2.638 2.638c-.187.188-.441.293-.707.293h-6c-.266 0-.52-.105-.707-.293l-2.638-2.638c-.381.142-.655.501-.655.931v22c0 .552.448 1 1 1h12c.552 0 1-.448 1-1zm-1 7v10c0 1.654-1.346 3-3 3h-6c-1.654 0-3-1.346-3-3v-10c0-1.654 1.346-3 3-3h6c1.654 0 3 1.346 3 3zm-2 0c0-.552-.448-1-1-1h-6c-.552 0-1 .448-1 1v10c0 .552.448 1 1 1h6c.552 0 1-.448 1-1z"></path></g></svg>