<!-- icon666.com - MILLIONS vector ICONS FREE --><svg version="1.1" xmlns="http://www.w3.org/2000/svg" viewBox="0 0 297 297" xmlns:xlink="http://www.w3.org/1999/xlink" enable-background="new 0 0 297 297"><g><path d="m149.334,214c-30.572,0-56.278-20.79-63.778-49h-85.556v66h297v-66h-83.888c-7.5,28.21-33.206,49-63.778,49z"></path><path d="M149.334,82c30.932,0,56.884,21.282,64.036,50H297V66H0v66h85.298C92.45,103.282,118.402,82,149.334,82z"></path><path d="m152.096,141.044c-3.474-1.528-5.845-3.04-7.113-4.534-1.268-1.493-1.902-3.439-1.902-5.836 0-2.362 0.591-4.309 1.772-5.838 1.18-1.528 3.005-2.292 5.472-2.292 2.432,0 4.377,1.03 5.836,2.888 1.46,1.859 2.189,4.568 2.189,8.568h17.248l.105-.359c0.104-6.568-1.936-12.019-5.583-16.259-3.648-4.236-9.121-6.858-15.121-7.763v-11.619h-8v11.411c-7,0.626-11.756,2.841-15.717,6.645-3.961,3.805-5.879,8.642-5.879,14.514 0,6.497 1.9,11.42 5.634,14.773 3.733,3.354 9.715,6.661 17.915,9.928 3.368,1.459 5.723,2.943 7.044,4.455 1.318,1.512 1.983,3.64 1.983,6.383 0,2.363-0.641,4.274-1.925,5.733-1.286,1.458-3.178,2.188-5.68,2.188-2.987,0-5.418-0.891-7.295-2.783-1.875-1.893-2.812-5.246-2.812-9.246h-17.145l-.157,.258c-0.14,7.814 1.911,13.721 6.358,17.767 4.446,4.048 9.676,6.373 16.676,7.032v10.942h8v-10.89c7-0.661 11.789-2.832 15.593-6.514 3.803-3.683 5.829-8.547 5.829-14.593 0-6.357-1.832-11.247-5.619-14.669-3.785-3.42-9.647-6.852-17.706-10.29z"></path></g></svg>