<!-- icon666.com - MILLIONS vector ICONS FREE --><svg viewBox="-32 0 496 496" xmlns="http://www.w3.org/2000/svg"><path d="m352.648438 387.65625c-.992188-2.417969-3.335938-3.984375-5.9375-3.984375h-234.207032c-2.601562 0-4.953125 1.566406-5.9375 3.984375l-40.8125 99.496094c-.808594 1.96875-.585937 4.222656.605469 6.007812 1.183594 1.769532 3.183594 2.839844 5.320313 2.839844h315.839843c2.136719 0 4.136719-1.070312 5.328125-2.839844 1.183594-1.777344 1.425782-4.03125.609375-6.007812zm-115.082032 27.375h42.777344v12.824219h-42.777344zm-85.550781 0h42.777344v12.824219h-42.777344zm161.121094 44.609375h-170.191407v-12.824219h170.191407zm0 0" fill="#d2ddec" style="fill: rgb(255, 255, 255);"></path><path d="m113.441406 137.503906h6.414063v16.832032l39.96875-27.441407-39.976563-27.421875.007813 10.421875v.015625 6.394532l-6.40625.007812-5.953125.007812-106.792969.121094.007813.175782-.710938.527343v19.441407c0 .582031.328125.917968.910156.917968zm0 0" fill="#d2ddec" style="fill: rgb(255, 255, 255);"></path><path d="m64.945312 150.328125v82.320313h332.199219v-198.945313h-332.199219v69.824219l42.070313-.046875v-11.402344c.242187-3.726563 2.089844-6.535156 4.953125-7.980469 2.832031-1.425781 6.167969-1.226562 8.902344.519532l50.898437 34.933593c2.582031 2.050781 3.847657 4.617188 3.847657 7.351563 0 2.730468-1.265626 5.304687-3.472657 7.074218l-51.097656 35.09375c-.773437.503907-1.597656.867188-2.4375 1.121094-.21875.066406-.433594.074219-.648437.121094-.617188.144531-1.242188.261719-1.863282.273438-.058594 0-.121094.023437-.175781.023437-.402344 0-.792969-.097656-1.1875-.144531-.300781-.039063-.605469-.039063-.902344-.113282-.65625-.160156-1.296875-.414062-1.910156-.71875-.082031-.039062-.167969-.046874-.25-.097656l-.007813-.007812c-.222656-.128906-.398437-.3125-.617187-.457032-.453125-.300781-.925781-.589843-1.320313-.964843-.382812-.371094-.679687-.816407-.984374-1.25-.148438-.207031-.34375-.382813-.476563-.597657-.3125-.53125-.523437-1.105468-.722656-1.683593-.054688-.167969-.160157-.308594-.207031-.476563-.207032-.761718-.328126-1.5625-.328126-2.371094v-11.382812h-42.0625zm0 0" fill="#d2ddec" style="fill: rgb(255, 255, 255);"></path><path d="m30.089844 0v103.574219l22.023437-.023438v-76.261719c0-3.546874 2.871094-6.417968 6.414063-6.417968h345.03125c3.546875 0 6.417968 2.871094 6.417968 6.417968v211.765626c0 3.546874-2.871093 6.417968-6.417968 6.417968h-345.03125c-3.542969 0-6.414063-2.871094-6.414063-6.417968v-88.726563h-22.023437v116.023437h165.175781v34.550782h-23.777344v21.378906h119.105469v-21.378906h-23.777344v-34.550782h165.183594v-266.351562zm215.34375 300.902344h-28.777344v-34.550782h28.777344zm0 0" fill="#000000" style="fill: rgb(255, 255, 255);"></path></svg>