<!-- icon666.com - MILLIONS vector ICONS FREE --><svg id="Layer_3" enable-background="new 0 0 64 64" viewBox="0 0 64 64" xmlns="http://www.w3.org/2000/svg"><g><circle cx="32" cy="32" r="7" fill="#d2ddec" style="fill: rgb(255, 255, 255);"></circle><path d="m42.773 29.769c-.278-1.352-.811-2.632-1.582-3.803-.234-.355-.217-.819.041-1.157l1.463-1.913-1.59-1.59-1.913 1.463c-.337.259-.801.275-1.157.041-1.171-.771-2.451-1.304-3.803-1.582-.417-.086-.733-.426-.79-.847l-.317-2.381h-2.249l-.317 2.38c-.056.421-.373.761-.79.847-1.352.278-2.632.811-3.803 1.582-.355.233-.82.217-1.157-.041l-1.913-1.463-1.59 1.59 1.463 1.913c.258.338.275.802.041 1.157-.771 1.171-1.304 2.451-1.582 3.803-.086.417-.426.733-.847.79l-2.381.317v2.249l2.38.317c.421.056.761.373.847.79.278 1.352.811 2.632 1.582 3.803.234.355.217.819-.041 1.157l-1.463 1.913 1.59 1.59 1.913-1.463c.339-.258.803-.274 1.157-.041 1.171.771 2.451 1.304 3.803 1.582.417.086.733.426.79.847l.317 2.381h2.249l.317-2.38c.056-.421.373-.761.79-.847 1.352-.278 2.632-.811 3.803-1.582.354-.234.819-.217 1.157.041l1.913 1.463 1.59-1.59-1.463-1.913c-.258-.338-.275-.802-.041-1.157.771-1.171 1.304-2.451 1.582-3.803.086-.417.426-.733.847-.79l2.381-.317v-2.249l-2.38-.317c-.421-.057-.761-.374-.847-.79zm-10.773 11.231c-4.962 0-9-4.038-9-9s4.038-9 9-9 9 4.038 9 9-4.038 9-9 9z" fill="#d2ddec" style="fill: rgb(255, 255, 255);"></path><path d="m55 29h6v6h-6z" fill="#d2ddec" style="fill: rgb(255, 255, 255);"></path><path d="m55 49h6v6h-6z" fill="#d2ddec" style="fill: rgb(255, 255, 255);"></path><path d="m55 9h6v6h-6z" fill="#d2ddec" style="fill: rgb(255, 255, 255);"></path><path d="m3 29h6v6h-6z" fill="#d2ddec" style="fill: rgb(255, 255, 255);"></path><path d="m3 49h6v6h-6z" fill="#d2ddec" style="fill: rgb(255, 255, 255);"></path><path d="m3 9h6v6h-6z" fill="#d2ddec" style="fill: rgb(255, 255, 255);"></path><path d="m15 12c0-.552-.448-1-1-1h-3v2h2v18h-2v2h2v18h-2v2h3c.552 0 1-.448 1-1v-19h1v-2h-1z" fill="#d2ddec" style="fill: rgb(255, 255, 255);"></path><path d="m49 12v19h-1v2h1v19c0 .552.448 1 1 1h3v-2h-2v-18h2v-2h-2v-18h2v-2h-3c-.552 0-1 .448-1 1z" fill="#d2ddec" style="fill: rgb(255, 255, 255);"></path></g></svg>