<svg viewBox="0 0 176 176" xmlns="http://www.w3.org/2000/svg"><g id="Layer_2" data-name="Layer 2"><g id="telegram"><rect id="background" fill="#28a8e9" height="176" rx="24" width="176"></rect><path id="icon" d="m135.94 45.5-1.82.66-98.78 35.59a3.31 3.31 0 0 0 .29 6.4l25.57 7 4.77 14 4.77 14a4.54 4.54 0 0 0 7.32 1.63l13.21-12.48 25.94 17.59c3.17 2.16 7.69.56 8.5-3l17.18-75.91c.84-3.76-3.12-6.85-6.95-5.48zm-12.61 16.85-44.63 36.48-2.1 1.72a2.27 2.27 0 0 0 -.84 1.48l-.47 3.88-1.29 10.9a.5.5 0 0 1 -1 .08l-3.63-10.89-3.75-11.15a2.26 2.26 0 0 1 1.08-2.67l46.44-26.62 8.74-5c1.27-.74 2.57.87 1.45 1.79z" fill="#fff"></path></g></g></svg>